<svg xmlns="http://www.w3.org/2000/svg" xmlns:xlink="http://www.w3.org/1999/xlink" width="467" height="225" viewBox="0 0 467 225">
  <defs>
    <clipPath id="clip-Custom_Size_1">
      <rect width="467" height="225"/>
    </clipPath>
  </defs>
  <g id="Custom_Size_1" data-name="Custom Size – 1" clip-path="url(#clip-Custom_Size_1)">
    <rect width="467" height="225" fill="#fff"/>
    <g id="Skydive_Dubai" data-name="Skydive Dubai" transform="translate(145 80.777)">
      <path id="Path_52" data-name="Path 52" d="M54.139,63.445a31.454,31.454,0,0,1-7.524-.869,21.3,21.3,0,0,1-6.91-2.915l-.053-.035c-.4-.263-.764-.536-1.124-.817-5.049,3.565-10.641,3.617-14.417,3.653H3.056V33.654A13.4,13.4,0,0,1,4.25,27.938,48.956,48.956,0,0,1,.343,21.327c-.439-1.036-.711-3.143.825-3.89a20.8,20.8,0,0,1,2.415-.86,11.375,11.375,0,0,1-.8-4.258A11.544,11.544,0,0,1,4.5,6.278C7.034,2.169,11.775,0,18.2,0a20.474,20.474,0,0,1,9.623,2.019A10.972,10.972,0,0,1,31.68,1h.061l.386-.018h12.74L54.183,1l3.231,4.6C60.127,1.335,63.5,1.01,68.574,1.01L93.825.992h.044c.553.035,5.444.369,8.095,2.336a12.447,12.447,0,0,1,2.872,3.2c3.406-5.54,8.314-5.54,11.4-5.549H140V62.462H125A11.546,11.546,0,0,1,115.565,57h-7.042c-3.231,5.347-9.377,5.426-11.467,5.452H64.394c-.948.114-8.183.983-10.255.983"/>
      <path id="Path_53" data-name="Path 53" d="M119.968,23.017V18.23h13.256v-3.54H119.968V10.183h13.713V6.591H118.669a4.232,4.232,0,0,0-2.476,1.02l.465-1.02h-.1c-3.31,0-5.364.157-7.076,4.272L105.816,19.7a10.233,10.233,0,0,0-.65,1.892,12.551,12.551,0,0,0-.6-1.892l-3.616-8.8c-1.572-3.8-4.048-4.324-6.857-4.316H89.048v7.524a9.007,9.007,0,0,0-8.577-7.533H71.6A4.8,4.8,0,0,0,69,7.254c.237-.41.378-.645.378-.645-5.338-.017-5.724.279-6.839,2.276l-4.179,7.184c-.5-.628-1.369-1.561-1.659-1.935L51.368,6.6H45.2a4.757,4.757,0,0,0-3.108,1.212l-8.463,7.533V6.591H32.485a3.8,3.8,0,0,0-3.749,3.182A8.227,8.227,0,0,0,25.8,7.167a14.509,14.509,0,0,0-7.269-1.552c-3.2,0-6.9.706-8.586,3.4a5.4,5.4,0,0,0-.8,2.834c0,4.534,4.679,5.405,6.532,5.745.939.166,5.074.793,5.908.959,1.08.2,2.485.541,2.485,1.979,0,2.432-3.845,2.633-5.074,2.633a9.541,9.541,0,0,1-4.925-1.151,11.6,11.6,0,0,1-.983-.776c-.729-.628-1.291-.985-3.169-.619l-2.028.523-.246.07c2.6,5.065,7.7,5.632,11.009,5.632,2.265,0,8.665-.183,9.991-4.813v4.542h5V20.567L36.7,17.96l5.75,6.277c2.379,2.415,3.038,2.328,4.767,2.337h4.126L40.166,15.022l6.918-5.955L55.811,20.5l-3.556,6.112s.606-.009,2.616-.009,3.4-.628,5.531-4.42c.176-.314,4.311-7.454,6.927-11.962,0,.061-.018.113-.018.183V26.574H77.688c3.046-.026,6.848-.052,9.666-3.705a9.654,9.654,0,0,0,1.756-4.045v7.751h5.048V7.768c1.809,3.984,5.969,13.025,7.111,15.519,1.553,3.4,4.319,3.3,6.417,3.3l7.348-16.26a3.076,3.076,0,0,0-.026.4l-.018.017v.2L115,14.307h-.018V26.574h19.332V23.008H120.029Zm-97.4-8.483c-.939-.2-5.048-.881-5.873-1.046-1.51-.34-2.678-.68-2.678-1.979,0-1.9,2.282-2.319,4.5-2.319a9.866,9.866,0,0,1,4.047.767,4.353,4.353,0,0,1,.939.61c.694.479,1.089.976,3.915.27l1.212-.314a.28.28,0,0,1-.009.07v7.873c-.9-2.886-4.065-3.557-6.049-3.923M83.017,21.1c-1.343,1.9-3.4,1.927-5.188,1.953H72.262V10.131h5.821c1.738.035,3.845.061,5.162,2.127a7.531,7.531,0,0,1,1,4.106,7.634,7.634,0,0,1-1.229,4.725" fill="#efeff0"/>
      <path id="Path_54" data-name="Path 54" d="M126.989,27.48V49.434L116.314,27.48h-7.831L99.046,46.87c-.553-4.752-4.486-5.78-6.163-6.243a6.517,6.517,0,0,0,3.652-2.275,6.368,6.368,0,0,0,1.141-3.827,6.984,6.984,0,0,0-1.141-4.072c-1.975-2.816-5.619-2.894-8.612-2.973h-10c-4.038,0-6.777,1.133-8.015,3.705V27.48l-.105.052c-4.548,0-7.12,3.81-7.12,10.34v6.548c.088,2.886-.527,3.827-1.229,4.638-1.15,1.308-2.915,2.031-5.662,2.284a13.059,13.059,0,0,1-6.558-.933c-2.748-1.3-3.283-3.461-3.283-6.024l-.018-6.609v-.018c-.061-6.408-2.7-10.253-7.2-10.27h-.026l.018.026v5.876c-2.054-3.13-5.452-5.292-10.3-5.737-1.071-.122-2.133-.122-3.2-.157l-9.552-.026h-.307l-.035.017c-3.793.131-5.943,2.372-5.943,6.155v22.6H24.309c4.389-.035,9.841-.079,13.9-5.336a12.4,12.4,0,0,0,1.036-1.683,9.379,9.379,0,0,0,4.065,5.222,15.392,15.392,0,0,0,5,2.075,25.819,25.819,0,0,0,6.11.7c4.389,0,9.964-1.107,12.958-4.4a8.68,8.68,0,0,0,1.738-2.807v6.234H89a11.9,11.9,0,0,0,6.356-1.369l-.887,1.369H96.5c3.845,0,6.461-.471,7.62-3.557.641-1.7.72-1.857.72-1.857h14.845l.132.1c.07.157.228.575.667,1.744,1.045,2.772,3.266,3.435,6.479,3.54v.035h7.26V27.48h-7.234ZM32.079,48.335c-1.931,2.72-4.881,2.764-7.462,2.807h-8V32.572h8.367c2.5.044,5.531.087,7.418,3.052a10.776,10.776,0,0,1,1.44,5.9c0,3.627-.9,5.623-1.765,6.8M76.316,32.485H87.264c1.15,0,3.485.044,3.485,3.1a3.036,3.036,0,0,1-1.721,2.929,6.7,6.7,0,0,1-2.335.288H76.325V32.485ZM87.185,51.177H76.316V43.81H88.089c1.062,0,3.81,0,3.81,3.461,0,3.95-3.073,3.906-4.723,3.906M107.2,45.728l4.39-9.573c.167-.366.29-.732.448-1.1.079-.331.166-.654.289-1.02a4.794,4.794,0,0,0,.246,1.142,6.514,6.514,0,0,0,.5,1.142l4.3,9.407Z" fill="#b1b1b1"/>
      <path id="Path_55" data-name="Path 55" d="M49,9.356a9.419,9.419,0,0,1,1.958-1.343c.342-.174.825-.078,1.115-.392-.018-1.508-2.8-3.374-3.968-4.045-.369-.017-.729-.035-1.089-.061a13.654,13.654,0,0,0-3.16.741c-.237.166-.465.331-.7.5a22.47,22.47,0,0,0-6.207,4.42c-.22.314-.439.619-.658.933a39.285,39.285,0,0,0-6.6,8.213c-.158.279-.053.637-.149.785-.141.174-.29.34-.43.514-.3.915-.6,1.822-.9,2.738a2.216,2.216,0,0,0,.492.846,7.917,7.917,0,0,0,2.678,1.011c.509.166,1.062.628,1.448.61.36-.1.711-.192,1.08-.288.377-.549.755-1.1,1.124-1.648.606-.7,1.308-1.421,1.861-2.014A3,3,0,0,0,37.46,19.7c.281-.192.562-.384.834-.575.4-.392.623-.881,1.027-1.264.694-.6,1.4-1.2,2.09-1.8,2.177-2.058,4.117-4.194,6.33-6.051.43-.218.86-.445,1.29-.663m9.078,30.489c-.29-.07-.579-.139-.878-.209A11.07,11.07,0,0,0,54.4,38.284c1.018-1.037-.14-1.883-.571-2.677-.035-.009-.062-.017-.088-.026.114-.375.22-.323.483-.375-.009-.122-.017-.253-.026-.384-.132-.07-.272-.139-.4-.209a3.415,3.415,0,0,0-1.106-1.944,8.539,8.539,0,0,0,1.194-.863c.395-.593.026-1.8.017-2.276,0-.41.316-.523.342-.828v-.044a1.253,1.253,0,0,0-.544-.854c-.105-.131-.114-.139-.272-.035a2.815,2.815,0,0,1-.237-1.412H53c-.246.61.132.95.123,1.482a1.605,1.605,0,0,1-.07.4c-.044.113-.088.235-.14.357.044-.087.079-.174.114-.261-.035.113-.062.218-.1.331a.08.08,0,0,1-.044-.009.13.13,0,0,1,.026-.061c-.29.567-.8,1.081-.992,1.587a.08.08,0,0,1-.044-.009A12.93,12.93,0,0,0,50.717,25.7h-.14c.009.619.22,1.264.176,1.953.123.131.088.148.281.174.255,1.038.509,2.075.764,3.1-.3.7-.729.872-1.15,1.343a.318.318,0,0,0-.1.017c-.053-.044-.1-.1-.149-.139a2.161,2.161,0,0,0-.184-1.125,1.443,1.443,0,0,0-2.107.323,1.392,1.392,0,0,0,.983,1.918c-.018.1-.026.209-.044.314-.088.087-.176.166-.263.253a8.26,8.26,0,0,1-1.966-2.528c.079.026.167.052.255.079,0-.48-.773-.968-1.124-1.256-.079.044-.149.079-.22.122-.044.052-.1.1-.14.148.685.854,1.369,1.7,2.054,2.555l.079.209h-.184c-.421-.68-.483-.261-.852-.619-.211-.209-.176-.567-.465-.785-.018-.035-.044-.078-.061-.113-.018,0-.035.017-.053.035a.988.988,0,0,1-.088.113c.149.3.3.584.448.872v.793c.035.07,1.773,1.491,2.037,1.665.342.166.685.323,1.027.488.088.209.184.427.281.637a10.513,10.513,0,0,1,1.4,1.569c.457.7-.3,2.04-.167,2.929.14.331.272.663.4,1a12.576,12.576,0,0,0,3.336.27c.377.018.579.279.808.279.132-.087.272-.174.4-.253a3.6,3.6,0,0,1,1.519.07c.053-.166.105-.34.149-.514-.219-.663-.816-.532-1.431-.7-.246-.07-.483-.14-.729-.218-.281.061-.4.384-.694.453a14.455,14.455,0,0,1-1.642-.619l.263-.758c.342.1.694.2,1.036.305.641.052,1.308-.209,2.019.122.536.244.992.724,1.607.75.1-.113.184-.227.29-.331a.667.667,0,0,0-.3-.741m-5.654-8.44c-.105-.026-.2-.061-.3-.087a5.659,5.659,0,0,1,1.045-2.581,3.24,3.24,0,0,1-.737,2.668" fill="#e1251b" fill-rule="evenodd"/>
    </g>
  </g>
</svg>
