<svg xmlns="http://www.w3.org/2000/svg" xmlns:xlink="http://www.w3.org/1999/xlink" width="467" height="225" viewBox="0 0 467 225">
  <defs>
    <clipPath id="clip-Custom_Size_1">
      <rect width="467" height="225"/>
    </clipPath>
  </defs>
  <g id="Custom_Size_1" data-name="Custom Size – 1" clip-path="url(#clip-Custom_Size_1)">
    <rect width="467" height="225" fill="#fff"/>
    <g id="ehs-logo" transform="translate(66.496 92.967)">
      <path id="Path_1" data-name="Path 1" d="M4.235,4.563A11.163,11.163,0,0,0,.995,12.6V38.854H35.773v-5.9H6.683V21.893H35.7v-5.9H6.683V12.527A5.3,5.3,0,0,1,8.267,8.619,5.162,5.162,0,0,1,12.083,7H35.7V1.1H12.156A10.823,10.823,0,0,0,4.235,4.563Z" fill="#315679"/>
      <path id="Path_2" data-name="Path 2" d="M68.825,16.067H45.495V1.171H39.806V38.854h5.688V21.893h23.33V38.854h5.688V1.171H68.825Z" fill="#315679"/>
      <path id="Path_3" data-name="Path 3" d="M85.314,8.1A3.228,3.228,0,0,1,87.69,7.07h25.634v-5.9H87.69A8.657,8.657,0,0,0,81.281,3.9a9.081,9.081,0,0,0-2.664,6.563V12.6a8.846,8.846,0,0,0,2.664,6.563,8.943,8.943,0,0,0,6.409,2.729h16.561a2.976,2.976,0,0,1,2.376,1.033,3.38,3.38,0,0,1,1.009,2.434v4.277a3.116,3.116,0,0,1-1.009,2.434,3.227,3.227,0,0,1-2.376,1.033H78.617V39h25.634a8.658,8.658,0,0,0,6.409-2.729,9.081,9.081,0,0,0,2.664-6.563V25.433a8.846,8.846,0,0,0-2.664-6.563,8.945,8.945,0,0,0-6.409-2.729H87.69a2.977,2.977,0,0,1-2.376-1.032,3.384,3.384,0,0,1-1.008-2.434V10.536A3.558,3.558,0,0,1,85.314,8.1Z" fill="#315679"/>
      <path id="Path_4" data-name="Path 4" d="M122.973.8h-1.44V37.748h1.44Z" fill="#315679"/>
      <path id="Path_5" data-name="Path 5" d="M139.318,11.2a.716.716,0,0,1-.144.516c-.072.074-.288.074-.5.074h-.576a2.923,2.923,0,0,1-1.152-.221,1.589,1.589,0,0,1-.72-.664h-1.44a4.074,4.074,0,0,1-2.736-.737,2.656,2.656,0,0,1-.864-2.139A2.942,2.942,0,0,1,132.19,5.6,4.423,4.423,0,0,1,135,4.858h.5a1.948,1.948,0,0,1,.648.074,1.948,1.948,0,0,1,.648.074c.216,0,.36.074.5.074V9.356a1.6,1.6,0,0,0,.216.885.972.972,0,0,0,.864.369h.36c.216,0,.36,0,.432.074A1.085,1.085,0,0,1,139.318,11.2ZM132.55,7.955A1.685,1.685,0,0,0,133.2,9.43a3.365,3.365,0,0,0,1.872.442h.936V6.038c-.216,0-.5-.074-.648-.074H135a3.015,3.015,0,0,0-1.728.442A1.78,1.78,0,0,0,132.55,7.955Zm.144-5.015a.849.849,0,0,1,.216-.59.86.86,0,0,1,1.152,0,.849.849,0,0,1,.216.59.849.849,0,0,1-.216.59.86.86,0,0,1-1.152,0A.849.849,0,0,1,132.694,2.941Zm2.016,0a.849.849,0,0,1,.216-.59.86.86,0,0,1,1.152,0,.849.849,0,0,1,.216.59.849.849,0,0,1-.216.59.86.86,0,0,1-1.152,0A.849.849,0,0,1,134.71,2.941Z" fill="#315679"/>
      <path id="Path_6" data-name="Path 6" d="M138.742,11.79a.6.6,0,0,1-.432-.148.633.633,0,0,1-.144-.443c0-.3.072-.443.144-.443.072-.074.288-.074.5-.074h1.08c.432,0,.72-.074.792-.3a1.705,1.705,0,0,0,.216-.959V5.079h1.3v5.088a.275.275,0,0,0,.072.221.371.371,0,0,0,.288.148.529.529,0,0,0,.36.074h.792c.216,0,.36,0,.433.074a.632.632,0,0,1,.144.443.717.717,0,0,1-.144.516c-.073.074-.289.074-.505.074h-.288a2.532,2.532,0,0,1-.792-.148,1.29,1.29,0,0,1-.576-.516,1.994,1.994,0,0,1-.576.443,2.6,2.6,0,0,1-1.224.221h-1.44Zm.792,1.991a.849.849,0,0,1,.216-.59.861.861,0,0,1,1.152,0,.914.914,0,0,1,0,1.18.861.861,0,0,1-1.152,0A.849.849,0,0,1,139.534,13.781Zm2.016,0a.849.849,0,0,1,.216-.59.861.861,0,0,1,1.152,0,.914.914,0,0,1,0,1.18.861.861,0,0,1-1.152,0A.849.849,0,0,1,141.55,13.781Z" fill="#315679"/>
      <path id="Path_7" data-name="Path 7" d="M148.679,10.684a4.574,4.574,0,0,1-.36-.885,5.092,5.092,0,0,1-.144-1.032c-.072-.369-.072-.664-.144-1.032a4.229,4.229,0,0,0-.288-.885,1.492,1.492,0,0,0-.576-.59,2.05,2.05,0,0,0-1.008-.221,4.024,4.024,0,0,0-1.008.074,3.578,3.578,0,0,1-.648.147V5.227a5.732,5.732,0,0,1,.792-.221,5.471,5.471,0,0,1,1.152-.147,3.214,3.214,0,0,1,1.584.295,2.618,2.618,0,0,1,.936.811,3.307,3.307,0,0,1,.432,1.18c.072.442.144.885.216,1.254.072.442.144.811.216,1.18a2.311,2.311,0,0,0,.432.959h.936c.216,0,.36,0,.432.074a.632.632,0,0,1,.144.442.716.716,0,0,1-.144.516c-.072.074-.288.074-.5.074h-7.416a.58.58,0,0,1-.649-.664.438.438,0,0,1,.145-.369c.072-.074.288-.074.5-.074h4.968Z" fill="#315679"/>
      <path id="Path_8" data-name="Path 8" d="M154.3,5.669a2.628,2.628,0,0,1,.864-.147l1.08-.221c.36-.074.72-.074,1.08-.147a4.982,4.982,0,0,1,1.008-.074,5.48,5.48,0,0,1,2.088.295,2.839,2.839,0,0,1,1.3.811,3.426,3.426,0,0,1,.648,1.254,5.921,5.921,0,0,1,.144,1.622v1.106c0,.074.072.148.144.221a.371.371,0,0,0,.288.148.529.529,0,0,0,.36.074h.648c.216,0,.36,0,.432.074a.632.632,0,0,1,.144.443.717.717,0,0,1-.144.516c-.072.074-.288.074-.5.074h-.144a2.532,2.532,0,0,1-.792-.148,1.29,1.29,0,0,1-.576-.516,1.994,1.994,0,0,1-.576.443,2.6,2.6,0,0,1-1.224.221h-9.577a.6.6,0,0,1-.432-.148.632.632,0,0,1-.144-.442c0-.3.072-.443.144-.443.072-.074.288-.074.5-.074h2.016v-5.6h1.3v.664Zm6.984,3.614a7.6,7.6,0,0,0-.144-1.4,2.027,2.027,0,0,0-.5-.959,1.958,1.958,0,0,0-1.008-.59,4.84,4.84,0,0,0-1.584-.221,4.011,4.011,0,0,0-.936.074,4.755,4.755,0,0,0-1.008.147c-.36.074-.648.074-.936.148a3.636,3.636,0,0,1-.792.147v4.056h5.976c.432,0,.72-.074.792-.3a1.705,1.705,0,0,0,.216-.959V9.283Z" fill="#315679"/>
      <path id="Path_9" data-name="Path 9" d="M163.944,11.79a.6.6,0,0,1-.432-.148.633.633,0,0,1-.144-.443c0-.3.072-.443.144-.443.072-.074.288-.074.5-.074h1.944V.359h1.3V11.79Z" fill="#315679"/>
      <path id="Path_10" data-name="Path 10" d="M170.713.359V11.79h-1.3V.359Z" fill="#315679"/>
      <path id="Path_11" data-name="Path 11" d="M187.058,10.684v-5.6h1.3V11.79h-10.3a2.18,2.18,0,0,1-1.585-.516,2.02,2.02,0,0,1-.576-1.7V6.48h1.3V9.43a1.6,1.6,0,0,0,.216.885.972.972,0,0,0,.864.369Zm-6.7-6.785a.849.849,0,0,1,.216-.59.86.86,0,0,1,1.152,0,.849.849,0,0,1,.216.59.849.849,0,0,1-.216.59.86.86,0,0,1-1.152,0A1.429,1.429,0,0,1,180.362,3.9Zm2.016,0a.849.849,0,0,1,.216-.59.86.86,0,0,1,1.152,0,.849.849,0,0,1,.216.59.849.849,0,0,1-.216.59.86.86,0,0,1-1.152,0A.849.849,0,0,1,182.378,3.9Z" fill="#315679"/>
      <path id="Path_12" data-name="Path 12" d="M193.827,11.2a.716.716,0,0,1-.144.516c-.072.074-.288.074-.5.074H192.6a2.177,2.177,0,0,1-1.585-.516,2.019,2.019,0,0,1-.576-1.7V.359h1.3V9.43a1.705,1.705,0,0,0,.216.959c.144.221.432.3.865.3h.432a1.045,1.045,0,0,1,.5.074A2.668,2.668,0,0,1,193.827,11.2Z" fill="#315679"/>
      <path id="Path_13" data-name="Path 13" d="M195.411,10.684a3.952,3.952,0,0,1-.36-1.106,4.861,4.861,0,0,1-.216-1.475,3.827,3.827,0,0,1,.216-1.254,3.1,3.1,0,0,1,.648-1.032,3.013,3.013,0,0,1,1.008-.664,4.236,4.236,0,0,1,1.44-.221,3.271,3.271,0,0,1,1.512.295,2.758,2.758,0,0,1,1.008.811,2.6,2.6,0,0,1,.5,1.106,3.322,3.322,0,0,1,.144,1.18,4.268,4.268,0,0,1-.216,1.327,3.966,3.966,0,0,1-.577,1.106,4.987,4.987,0,0,1-.936.811,2.686,2.686,0,0,1-1.368.3h-4.968a.6.6,0,0,1-.432-.148.632.632,0,0,1-.144-.442c0-.3.072-.443.144-.443.072-.074.288-.074.5-.074h2.088Zm2.592,0a1.507,1.507,0,0,0,.864-.221,1.492,1.492,0,0,0,.576-.59,2.757,2.757,0,0,0,.36-.811,3.675,3.675,0,0,0,.072-.885,2.3,2.3,0,0,0-.5-1.622A1.568,1.568,0,0,0,198,5.89a2.5,2.5,0,0,0-.72.147,1.563,1.563,0,0,0-.576.369,2.578,2.578,0,0,0-.432.664,2.068,2.068,0,0,0-.144.959,3.1,3.1,0,0,0,.072.811c.072.221.072.516.144.737a5.159,5.159,0,0,0,.216.59,2.48,2.48,0,0,0,.216.443H198Z" fill="#315679"/>
      <path id="Path_14" data-name="Path 14" d="M207.724,8.988a5,5,0,0,0-.072-1.106,1.639,1.639,0,0,0-.36-.885,2.31,2.31,0,0,0-.936-.59,5.011,5.011,0,0,0-1.656-.221h-1.224V5.153h1.3a6.138,6.138,0,0,1,2.16.295,2.679,2.679,0,0,1,1.944,1.844,4.888,4.888,0,0,1,.144,1.475v1.475c0,.074.072.148.144.221a.371.371,0,0,0,.288.148.636.636,0,0,0,.36.074h.648c.216,0,.36,0,.432.074a.633.633,0,0,1,.144.443.716.716,0,0,1-.144.516c-.072.074-.288.074-.5.074h-.144a2.535,2.535,0,0,1-.792-.148,1.291,1.291,0,0,1-.576-.516,2,2,0,0,1-.576.442,2.6,2.6,0,0,1-1.224.221H202.54V10.684h4.248c.432,0,.72-.074.792-.3a1.705,1.705,0,0,0,.216-.959V8.988Z" fill="#315679"/>
      <path id="Path_15" data-name="Path 15" d="M215.5,10.684a4.574,4.574,0,0,1-.36-.885A5.092,5.092,0,0,1,215,8.766c-.072-.369-.072-.664-.144-1.032a4.229,4.229,0,0,0-.288-.885,1.492,1.492,0,0,0-.576-.59,1.87,1.87,0,0,0-1.008-.221,4.025,4.025,0,0,0-1.008.074,3.577,3.577,0,0,1-.648.147V5.227a5.733,5.733,0,0,1,.792-.221,5.47,5.47,0,0,1,1.152-.147,3.213,3.213,0,0,1,1.584.295,2.618,2.618,0,0,1,.936.811,3.307,3.307,0,0,1,.432,1.18c.072.442.144.885.216,1.254.072.442.144.811.216,1.18a2.311,2.311,0,0,0,.432.959h.936c.216,0,.36,0,.432.074a.633.633,0,0,1,.144.443.716.716,0,0,1-.144.516c-.072.074-.288.074-.5.074h-7.416a.58.58,0,0,1-.648-.664.438.438,0,0,1,.144-.369c.072-.074.288-.074.5-.074H215.5Zm-3.168-7.743a.849.849,0,0,1,.216-.59.86.86,0,0,1,1.152,0,.849.849,0,0,1,.216.59.849.849,0,0,1-.216.59.86.86,0,0,1-1.152,0A.849.849,0,0,1,212.332,2.941Z" fill="#315679"/>
      <path id="Path_16" data-name="Path 16" d="M217.8,11.79a.6.6,0,0,1-.432-.148.633.633,0,0,1-.144-.443c0-.3.072-.443.144-.443.072-.074.288-.074.5-.074h1.08c.432,0,.72-.074.792-.3a1.705,1.705,0,0,0,.216-.959V.359h1.3v9.808c0,.074.072.147.144.221a.371.371,0,0,0,.288.148.636.636,0,0,0,.36.074h.792c.216,0,.36,0,.432.074a.632.632,0,0,1,.144.442.717.717,0,0,1-.144.516c-.072.074-.288.074-.5.074h-.432a2.532,2.532,0,0,1-.792-.148,1.29,1.29,0,0,1-.576-.516,1.994,1.994,0,0,1-.576.443,2.6,2.6,0,0,1-1.224.221H217.8Z" fill="#315679"/>
      <path id="Path_17" data-name="Path 17" d="M222.629,11.79a.6.6,0,0,1-.432-.148.633.633,0,0,1-.144-.443c0-.3.072-.443.144-.443.072-.074.288-.074.5-.074h1.944V.359h1.3V11.79Z" fill="#315679"/>
      <path id="Path_18" data-name="Path 18" d="M242.143,10.684v-5.6h1.3V11.79h-10.3a2.176,2.176,0,0,1-1.584-.516,2.02,2.02,0,0,1-.576-1.7V6.48h1.3V9.43a1.6,1.6,0,0,0,.216.885.972.972,0,0,0,.864.369Zm-6.7-6.785a.849.849,0,0,1,.216-.59.86.86,0,0,1,1.152,0,.849.849,0,0,1,.216.59.849.849,0,0,1-.216.59.86.86,0,0,1-1.152,0A.849.849,0,0,1,235.446,3.9Zm2.016,0a.849.849,0,0,1,.216-.59.862.862,0,0,1,1.153,0,.849.849,0,0,1,.216.59.849.849,0,0,1-.216.59.862.862,0,0,1-1.153,0A.849.849,0,0,1,237.462,3.9Z" fill="#315679"/>
      <path id="Path_19" data-name="Path 19" d="M246.823.359V11.79h-1.3V.359Z" fill="#315679"/>
      <path id="Path_20" data-name="Path 20" d="M250.064,5.079h1.3V11.5a6.646,6.646,0,0,1-.144,1.254,2.311,2.311,0,0,1-.432.959,1.971,1.971,0,0,1-.864.664,3.965,3.965,0,0,1-1.441.221h-.288V13.486h.144a1.534,1.534,0,0,0,1.3-.443,2.583,2.583,0,0,0,.36-1.475V5.079Z" fill="#315679"/>
      <path id="Path_21" data-name="Path 21" d="M256.832,11.2a.716.716,0,0,1-.144.516c-.072.074-.288.074-.5.074h-.576a2.176,2.176,0,0,1-1.584-.516,2.019,2.019,0,0,1-.576-1.7V.359h1.3V9.43a1.705,1.705,0,0,0,.216.959c.144.221.432.3.864.3h.432a1.048,1.048,0,0,1,.505.074A2.668,2.668,0,0,1,256.832,11.2Z" fill="#315679"/>
      <path id="Path_22" data-name="Path 22" d="M258.344,10.684a3.952,3.952,0,0,1-.36-1.106,4.861,4.861,0,0,1-.216-1.475,3.827,3.827,0,0,1,.216-1.254,3.1,3.1,0,0,1,.648-1.032,3.013,3.013,0,0,1,1.008-.664,4.236,4.236,0,0,1,1.44-.221,3.271,3.271,0,0,1,1.512.295,2.753,2.753,0,0,1,1.009.811,2.594,2.594,0,0,1,.5,1.106,3.322,3.322,0,0,1,.144,1.18,4.267,4.267,0,0,1-.216,1.327,3.938,3.938,0,0,1-.576,1.106,4.993,4.993,0,0,1-.937.811,2.686,2.686,0,0,1-1.368.3h-4.968a.6.6,0,0,1-.432-.148.632.632,0,0,1-.144-.442c0-.3.072-.443.144-.443.072-.074.288-.074.5-.074h2.088Zm2.664,0a1.507,1.507,0,0,0,.864-.221,1.492,1.492,0,0,0,.576-.59,2.785,2.785,0,0,0,.361-.811,3.673,3.673,0,0,0,.071-.885,2.3,2.3,0,0,0-.5-1.622,1.568,1.568,0,0,0-1.368-.664,2.505,2.505,0,0,0-.72.147,1.563,1.563,0,0,0-.576.369,2.578,2.578,0,0,0-.432.664,2.068,2.068,0,0,0-.144.959,3.1,3.1,0,0,0,.072.811c.072.221.072.516.144.737a5.165,5.165,0,0,0,.216.59,2.483,2.483,0,0,0,.216.443h1.224Z" fill="#315679"/>
      <path id="Path_23" data-name="Path 23" d="M265.617,11.79V10.684h3.168v-7.6h1.3v7.6h2.808V.359h1.3V11.79Zm5.328,4.277h-3.168V15.33h.72a3.383,3.383,0,0,1-.144-.59,3.259,3.259,0,0,0-.072-.369,1.354,1.354,0,0,1,.432-1.032,1.735,1.735,0,0,1,1.3-.443h.72v.738H270.3a1.508,1.508,0,0,0-.864.221.726.726,0,0,0-.288.664.819.819,0,0,0,.072.369,1.911,1.911,0,0,0,.144.516h1.656v.664Z" fill="#315679"/>
      <path id="Path_24" data-name="Path 24" d="M277.786.359V11.79h-1.3V.359Z" fill="#315679"/>
      <path id="Path_25" data-name="Path 25" d="M291.035,11.2a.716.716,0,0,1-.144.516c-.072.074-.288.074-.5.074h-.648a2.923,2.923,0,0,1-1.152-.221,1.589,1.589,0,0,1-.72-.664h-1.441a4.074,4.074,0,0,1-2.736-.737,2.656,2.656,0,0,1-.864-2.139A2.942,2.942,0,0,1,283.834,5.6a4.423,4.423,0,0,1,2.808-.737h.5a1.951,1.951,0,0,1,.649.074,1.948,1.948,0,0,1,.648.074c.216,0,.36.074.5.074V9.356a1.6,1.6,0,0,0,.216.885.972.972,0,0,0,.864.369h.36c.216,0,.36,0,.432.074A.677.677,0,0,1,291.035,11.2Zm-6.769-3.245a1.685,1.685,0,0,0,.648,1.475,3.365,3.365,0,0,0,1.872.442h.937V6.038c-.216,0-.505-.074-.649-.074h-.36a3.015,3.015,0,0,0-1.728.442A1.78,1.78,0,0,0,284.266,7.955Zm.144-5.015a.849.849,0,0,1,.216-.59.86.86,0,0,1,1.152,0,.849.849,0,0,1,.216.59.849.849,0,0,1-.216.59.86.86,0,0,1-1.152,0A.849.849,0,0,1,284.41,2.941Zm2.016,0a.849.849,0,0,1,.216-.59.862.862,0,0,1,1.153,0,.849.849,0,0,1,.216.59.849.849,0,0,1-.216.59.862.862,0,0,1-1.153,0A.849.849,0,0,1,286.426,2.941Z" fill="#315679"/>
      <path id="Path_26" data-name="Path 26" d="M290.459,11.79a.6.6,0,0,1-.432-.148.633.633,0,0,1-.144-.443c0-.3.072-.443.144-.443.072-.074.288-.074.5-.074h2.52V6.48h1.3v4.2h2.736V6.48h1.3v4.2h1.657c.432,0,.72-.074.792-.3a1.706,1.706,0,0,0,.216-.959V5.079h1.3v5.088c0,.074.072.148.144.221a.371.371,0,0,0,.288.148.636.636,0,0,0,.36.074h.792c.216,0,.36,0,.432.074a.632.632,0,0,1,.144.443.717.717,0,0,1-.144.516c-.072.074-.288.074-.5.074h-.288a2.532,2.532,0,0,1-.792-.148,1.29,1.29,0,0,1-.576-.516,1.994,1.994,0,0,1-.576.443,2.6,2.6,0,0,1-1.224.221h-9.937Z" fill="#315679"/>
      <path id="Path_27" data-name="Path 27" d="M303.78,11.79a.6.6,0,0,1-.432-.148.633.633,0,0,1-.144-.443c0-.3.072-.443.144-.443.072-.074.288-.074.5-.074h2.736V6.48h1.3v4.2h2.736V6.48h1.3v4.2h2.665v-5.6h1.3V11.79Z" fill="#315679"/>
      <path id="Path_28" data-name="Path 28" d="M323.509,11.79a3.122,3.122,0,0,1-.216,1.18,2.564,2.564,0,0,1-.5.885,1.951,1.951,0,0,1-.936.516,3.957,3.957,0,0,1-1.44.221h-1.872V13.56h1.872a2.187,2.187,0,0,0,1.368-.369,1.83,1.83,0,0,0,.432-1.327h-.936a4.825,4.825,0,0,1-1.944-.369,3.6,3.6,0,0,1-1.152-.811,4.076,4.076,0,0,1-.576-1.106,5.821,5.821,0,0,1-.144-1.106,4.388,4.388,0,0,1,.216-1.4,2.923,2.923,0,0,1,.72-1.106,4.343,4.343,0,0,1,1.3-.737,6.884,6.884,0,0,1,1.872-.221,4.327,4.327,0,0,1,.936.074c.36,0,.648.074.936.074v5.531h1.44c.216,0,.36,0,.432.074a.632.632,0,0,1,.145.442.716.716,0,0,1-.145.516c-.072.074-.288.074-.5.074ZM318.757,8.4a1.992,1.992,0,0,0,.216,1.032,2.65,2.65,0,0,0,.5.737,2.631,2.631,0,0,0,.792.369,4.259,4.259,0,0,0,1.08.148h.792V6.038h-.576a4.011,4.011,0,0,0-.936.074,3.5,3.5,0,0,0-.936.295,2.316,2.316,0,0,0-.72.737A3.893,3.893,0,0,0,318.757,8.4Zm3.96-4.646h-3.672V2.941h.864a1.99,1.99,0,0,1-.216-.737c0-.147-.072-.369-.072-.516a1.484,1.484,0,0,1,.5-1.18,2.323,2.323,0,0,1,1.512-.442h.72V.8h-.576a3.265,3.265,0,0,0-1.008.147.871.871,0,0,0-.36.811.956.956,0,0,0,.072.442,1.728,1.728,0,0,0,.216.664h1.872v.885Z" fill="#315679"/>
      <path id="Path_29" data-name="Path 29" d="M327.11,10.684a3.952,3.952,0,0,1-.36-1.106,4.861,4.861,0,0,1-.216-1.475,3.827,3.827,0,0,1,.216-1.254,3.1,3.1,0,0,1,.648-1.032,3.012,3.012,0,0,1,1.008-.664,4.236,4.236,0,0,1,1.44-.221,3.271,3.271,0,0,1,1.512.295,2.758,2.758,0,0,1,1.008.811,2.593,2.593,0,0,1,.5,1.106,3.321,3.321,0,0,1,.144,1.18,4.268,4.268,0,0,1-.216,1.327,3.939,3.939,0,0,1-.576,1.106,4.988,4.988,0,0,1-.936.811,2.686,2.686,0,0,1-1.368.3H324.95a.6.6,0,0,1-.432-.148.632.632,0,0,1-.144-.442c0-.3.072-.443.144-.443.072-.074.288-.074.5-.074h2.088Zm2.664,0a1.507,1.507,0,0,0,.864-.221,1.492,1.492,0,0,0,.576-.59,2.757,2.757,0,0,0,.36-.811,3.676,3.676,0,0,0,.072-.885,2.3,2.3,0,0,0-.5-1.622,1.568,1.568,0,0,0-1.368-.664,2.505,2.505,0,0,0-.72.147,1.563,1.563,0,0,0-.576.369,2.579,2.579,0,0,0-.432.664,2.069,2.069,0,0,0-.144.959,3.1,3.1,0,0,0,.072.811c.072.221.072.516.144.737a5.154,5.154,0,0,0,.216.59,2.481,2.481,0,0,0,.216.443h1.224Z" fill="#315679"/>
      <path id="Path_30" data-name="Path 30" d="M131.9,38.633V26.908h7.129v1.18h-5.617V32h5.4v1.18h-5.4v4.277h5.833v1.18Z" fill="#315679"/>
      <path id="Path_31" data-name="Path 31" d="M152.711,38.633V33.766a3.989,3.989,0,0,0-.072-.959,2.239,2.239,0,0,0-.288-.737,1.955,1.955,0,0,0-.576-.516,1.767,1.767,0,0,0-.936-.221,2.05,2.05,0,0,0-1.008.221,1.281,1.281,0,0,0-.648.59,2.757,2.757,0,0,0-.36.811,4.643,4.643,0,0,0-.072,1.032V38.56h-1.368V33.84a3.988,3.988,0,0,0-.072-.959,2.682,2.682,0,0,0-.288-.811,1.345,1.345,0,0,0-.576-.516,2.091,2.091,0,0,0-1.872,0,1.715,1.715,0,0,0-.648.59,2.493,2.493,0,0,0-.36.885,4.412,4.412,0,0,0-.144.959V38.56h-1.369V33.176c0-.959,0-1.844-.072-2.8h1.369l.072,1.327a2.829,2.829,0,0,1,2.52-1.475,3.366,3.366,0,0,1,1.584.369,2.462,2.462,0,0,1,1.008,1.328,2.967,2.967,0,0,1,2.808-1.7,2.524,2.524,0,0,1,1.368.3,2.13,2.13,0,0,1,.864.738,2.531,2.531,0,0,1,.432,1.106,8.361,8.361,0,0,1,.144,1.4V38.56h-1.44Z" fill="#315679"/>
      <path id="Path_32" data-name="Path 32" d="M157.392,28.383V26.908h1.584v1.475Zm.072,10.251V30.448h1.368v8.186Z" fill="#315679"/>
      <path id="Path_33" data-name="Path 33" d="M166.249,31.775h-.36a2.1,2.1,0,0,0-1.729.664,3.28,3.28,0,0,0-.5,1.844v4.425h-1.368V32.881c0-.811,0-1.622-.072-2.434h1.368l.072,1.327a2.719,2.719,0,0,1,1.009-1.032,2.8,2.8,0,0,1,1.44-.3h.432v1.327Z" fill="#315679"/>
      <path id="Path_34" data-name="Path 34" d="M173.953,38.633c0-.147-.072-.369-.072-.59s-.072-.369-.072-.59a3.015,3.015,0,0,1-1.152,1.032,3.27,3.27,0,0,1-1.512.295,5.43,5.43,0,0,1-1.08-.147,1.628,1.628,0,0,1-.864-.442,3.128,3.128,0,0,1-.649-.737,2.514,2.514,0,0,1-.216-1.106,2.38,2.38,0,0,1,.432-1.475,2.226,2.226,0,0,1,1.153-.811,4.572,4.572,0,0,1,1.512-.369,10.879,10.879,0,0,1,1.512-.074h.792V33.1a2.763,2.763,0,0,0-.36-1.475,1.583,1.583,0,0,0-1.368-.516,1.794,1.794,0,0,0-1.152.3,1.587,1.587,0,0,0-.5,1.106h-1.369a2.488,2.488,0,0,1,.288-1.106,3.171,3.171,0,0,1,.649-.737,3.564,3.564,0,0,1,.936-.369,5.43,5.43,0,0,1,1.08-.148,3.458,3.458,0,0,1,2.3.664,2.885,2.885,0,0,1,.72,2.286v3.024a9.627,9.627,0,0,0,.072,1.475,7.925,7.925,0,0,1,.144.959h-1.224Zm-.288-4.056h-.72a4.979,4.979,0,0,0-1.008.074,5.624,5.624,0,0,0-1.08.221,3.388,3.388,0,0,0-.864.516,1.421,1.421,0,0,0-.36.959,2.2,2.2,0,0,0,.144.664,1.321,1.321,0,0,0,.36.516,1.434,1.434,0,0,0,.576.3,1.947,1.947,0,0,0,.648.074,2.022,2.022,0,0,0,1.224-.3,2.075,2.075,0,0,0,.648-.737,4.069,4.069,0,0,0,.288-1.106A3.322,3.322,0,0,0,173.665,34.577Z" fill="#315679"/>
      <path id="Path_35" data-name="Path 35" d="M180.866,38.707a1.994,1.994,0,0,1-1.44-.443,2.111,2.111,0,0,1-.5-1.475V31.406h-1.585v-.959h1.585V28.825l1.368-.59v2.212h1.8v.959h-1.8v5.457a1.066,1.066,0,0,0,.144.443c.072.074.216.221.36.221a1.374,1.374,0,0,0,.576.074h.36a.636.636,0,0,0,.36-.074v1.106A6.43,6.43,0,0,1,180.866,38.707Z" fill="#315679"/>
      <path id="Path_36" data-name="Path 36" d="M185.546,34.8v.147a5.821,5.821,0,0,0,.144,1.106,2.311,2.311,0,0,0,.432.959,2.06,2.06,0,0,0,.72.664,2.357,2.357,0,0,0,1.081.221,1.769,1.769,0,0,0,1.368-.516,2.125,2.125,0,0,0,.648-1.4h1.3a3.246,3.246,0,0,1-1.152,2.139,4.511,4.511,0,0,1-3.961.369,3.474,3.474,0,0,1-1.152-.885,5.7,5.7,0,0,1-.72-1.327,6.047,6.047,0,0,1-.216-1.7,6.429,6.429,0,0,1,.216-1.7,3.705,3.705,0,0,1,.72-1.4,3.5,3.5,0,0,1,1.152-.959,3.781,3.781,0,0,1,1.729-.369,3.681,3.681,0,0,1,1.656.369,3.416,3.416,0,0,1,1.08.959,4.776,4.776,0,0,1,.576,1.4,12.389,12.389,0,0,1,.144,1.7h-5.761Zm4.465-.959a3.82,3.82,0,0,0-.144-.959,2.757,2.757,0,0,0-.36-.811,1.714,1.714,0,0,0-.648-.59,1.954,1.954,0,0,0-.936-.221,1.768,1.768,0,0,0-.937.221,2.539,2.539,0,0,0-.72.59,1.771,1.771,0,0,0-.432.811,2.317,2.317,0,0,0-.216.959Z" fill="#315679"/>
      <path id="Path_37" data-name="Path 37" d="M200.019,36.273a2.048,2.048,0,0,1-.288,1.18,3.833,3.833,0,0,1-.72.811,2.407,2.407,0,0,1-1.08.443,6.164,6.164,0,0,1-1.152.147,6.938,6.938,0,0,1-1.224-.147,2.5,2.5,0,0,1-1.008-.443,2.294,2.294,0,0,1-.648-.811,3.247,3.247,0,0,1-.216-1.254h1.368a1.671,1.671,0,0,0,.5,1.254,1.719,1.719,0,0,0,1.3.369,1.95,1.95,0,0,0,.648-.074,4.906,4.906,0,0,0,.576-.221,2.476,2.476,0,0,0,.432-.442c.144-.148.144-.369.144-.664a1.085,1.085,0,0,0-.144-.516.879.879,0,0,0-.36-.369,1.435,1.435,0,0,0-.576-.295l-.648-.221-.648-.147a3.99,3.99,0,0,1-.864-.295,2.776,2.776,0,0,1-.792-.442,1.728,1.728,0,0,1-.576-.664,1.881,1.881,0,0,1-.216-.959,1.809,1.809,0,0,1,.288-1.106,3.454,3.454,0,0,1,.72-.737,2.382,2.382,0,0,1,1.008-.369,4.291,4.291,0,0,1,2.232,0,2.208,2.208,0,0,1,.936.442,2.076,2.076,0,0,1,.648.737,3.981,3.981,0,0,1,.288,1.18h-1.368a1.309,1.309,0,0,0-.432-1.106,1.465,1.465,0,0,0-1.152-.369,1.748,1.748,0,0,0-.576.074,3.468,3.468,0,0,0-.5.221.879.879,0,0,0-.36.369,1.417,1.417,0,0,0-.144.59.967.967,0,0,0,.5.885,4.752,4.752,0,0,0,1.224.516l.648.147c.36.074.648.221,1.008.295a7.8,7.8,0,0,1,.792.443,1.6,1.6,0,0,1,.5.664A3.11,3.11,0,0,0,200.019,36.273Z" fill="#315679"/>
      <path id="Path_38" data-name="Path 38" d="M216,38.633V33.25h-5.9v5.383h-1.44V26.908h1.44V32H216V26.908h1.44V38.633Z" fill="#315679"/>
      <path id="Path_39" data-name="Path 39" d="M222.053,34.8v.147a5.821,5.821,0,0,0,.144,1.106,2.311,2.311,0,0,0,.432.959,2.06,2.06,0,0,0,.72.664,2.356,2.356,0,0,0,1.08.221,1.769,1.769,0,0,0,1.368-.516,2.125,2.125,0,0,0,.648-1.4h1.3a3.243,3.243,0,0,1-1.153,2.139,4.509,4.509,0,0,1-3.96.369,3.474,3.474,0,0,1-1.152-.885,5.7,5.7,0,0,1-.72-1.327,6.047,6.047,0,0,1-.216-1.7,6.429,6.429,0,0,1,.216-1.7,3.849,3.849,0,0,1,1.872-2.36,3.78,3.78,0,0,1,1.728-.369,3.681,3.681,0,0,1,1.656.369,3.43,3.43,0,0,1,1.081.959,4.775,4.775,0,0,1,.576,1.4,12.389,12.389,0,0,1,.144,1.7h-5.761Zm4.464-.959a3.819,3.819,0,0,0-.144-.959,2.757,2.757,0,0,0-.36-.811,1.714,1.714,0,0,0-.648-.59,1.954,1.954,0,0,0-.936-.221,1.767,1.767,0,0,0-.936.221,1.837,1.837,0,0,0-.72.59,1.771,1.771,0,0,0-.432.811,2.317,2.317,0,0,0-.216.959Z" fill="#315679"/>
      <path id="Path_40" data-name="Path 40" d="M235.806,38.633c0-.147-.072-.369-.072-.59s-.072-.369-.072-.59a3.015,3.015,0,0,1-1.152,1.032,3.27,3.27,0,0,1-1.512.295,5.43,5.43,0,0,1-1.08-.147,1.628,1.628,0,0,1-.864-.442,3.173,3.173,0,0,1-.649-.737,2.514,2.514,0,0,1-.216-1.106,2.38,2.38,0,0,1,.432-1.475,2.231,2.231,0,0,1,1.153-.811,4.572,4.572,0,0,1,1.512-.369,10.879,10.879,0,0,1,1.512-.074h.792V33.1a2.763,2.763,0,0,0-.36-1.475,1.583,1.583,0,0,0-1.368-.516,1.794,1.794,0,0,0-1.152.3,1.587,1.587,0,0,0-.5,1.106h-1.368a2.488,2.488,0,0,1,.288-1.106,3.144,3.144,0,0,1,.648-.737,3.564,3.564,0,0,1,.936-.369,5.43,5.43,0,0,1,1.08-.148,3.458,3.458,0,0,1,2.3.664,2.885,2.885,0,0,1,.72,2.286v3.024a9.627,9.627,0,0,0,.072,1.475,7.925,7.925,0,0,1,.144.959h-1.224Zm-.288-4.056h-.648a4.979,4.979,0,0,0-1.008.074,5.624,5.624,0,0,0-1.08.221,3.388,3.388,0,0,0-.864.516,1.421,1.421,0,0,0-.36.959,2.2,2.2,0,0,0,.144.664,1.321,1.321,0,0,0,.36.516,1.434,1.434,0,0,0,.576.3,1.947,1.947,0,0,0,.648.074,2.022,2.022,0,0,0,1.224-.3,2.075,2.075,0,0,0,.648-.737,4.069,4.069,0,0,0,.288-1.106C235.446,35.389,235.518,34.946,235.518,34.577Z" fill="#315679"/>
      <path id="Path_41" data-name="Path 41" d="M240.271,38.633V26.908h1.368V38.633Z" fill="#315679"/>
      <path id="Path_42" data-name="Path 42" d="M247.543,38.707a1.994,1.994,0,0,1-1.44-.443,1.827,1.827,0,0,1-.5-1.475V31.406h-1.584v-.959H245.6V28.825l1.368-.59v2.212h1.8v.959h-1.8v5.457a1.066,1.066,0,0,0,.144.443c.072.074.216.221.36.221s.36.074.576.074h.36a.636.636,0,0,0,.36-.074v1.106A6.43,6.43,0,0,1,247.543,38.707Z" fill="#315679"/>
      <path id="Path_43" data-name="Path 43" d="M256.832,38.633V34.061a4.985,4.985,0,0,0-.072-1.032c-.072-.369-.144-.59-.216-.885a1.492,1.492,0,0,0-.576-.59,1.874,1.874,0,0,0-1.009-.221,2.05,2.05,0,0,0-1.008.221,1.43,1.43,0,0,0-.648.664,3.76,3.76,0,0,0-.36.959,5.824,5.824,0,0,0-.144,1.106v4.351h-1.368V26.908H252.8V31.7a2.916,2.916,0,0,1,1.08-1.033,3.283,3.283,0,0,1,1.512-.369,3.815,3.815,0,0,1,1.369.221,1.97,1.97,0,0,1,.864.664,3.408,3.408,0,0,1,.5,1.032,6.766,6.766,0,0,1,.144,1.327v5.089Z" fill="#315679"/>
      <path id="Path_44" data-name="Path 44" d="M274.977,35.389a3.265,3.265,0,0,1-.36,1.549,3.668,3.668,0,0,1-1.008,1.106,4.546,4.546,0,0,1-1.368.59,5.49,5.49,0,0,1-1.584.221,10.5,10.5,0,0,1-1.512-.147,2.4,2.4,0,0,1-1.224-.59,2.985,2.985,0,0,1-.864-1.032,4.854,4.854,0,0,1-.432-1.549h1.512a2.082,2.082,0,0,0,.216.959,1.728,1.728,0,0,0,.576.664,2.631,2.631,0,0,0,.792.369,3.044,3.044,0,0,0,1.872,0,3.075,3.075,0,0,0,.864-.369,1.43,1.43,0,0,0,.648-.664,2.082,2.082,0,0,0,.216-.959,1.514,1.514,0,0,0-.216-.811,1.976,1.976,0,0,0-.5-.59,6.3,6.3,0,0,0-.72-.442,3.99,3.99,0,0,0-.864-.3l-1.008-.295c-.432-.148-.792-.3-1.224-.443a7.813,7.813,0,0,1-1.08-.59,2.157,2.157,0,0,1-.72-.885,2.3,2.3,0,0,1-.288-1.254,2.96,2.96,0,0,1,.36-1.475,3.122,3.122,0,0,1,.936-1.032,3.517,3.517,0,0,1,1.3-.59,4.787,4.787,0,0,1,1.44-.147,7.8,7.8,0,0,1,1.368.147,3.622,3.622,0,0,1,1.224.516,2.514,2.514,0,0,1,.864.885,2.877,2.877,0,0,1,.36,1.4h-1.512a3.173,3.173,0,0,0-.216-.885,1.016,1.016,0,0,0-.5-.59,2.126,2.126,0,0,0-.72-.295,5.094,5.094,0,0,0-1.728,0,1.58,1.58,0,0,0-.792.369,2.219,2.219,0,0,0-.576.59,1.6,1.6,0,0,0-.216.885.915.915,0,0,0,.216.664,3.189,3.189,0,0,0,.432.516,2.9,2.9,0,0,0,.648.369c.216.074.432.221.648.295l1.3.443c.432.147.792.295,1.224.443a7.8,7.8,0,0,1,1.08.59,2.156,2.156,0,0,1,.72.885A2.9,2.9,0,0,1,274.977,35.389Z" fill="#315679"/>
      <path id="Path_45" data-name="Path 45" d="M278.721,34.8v.147a5.823,5.823,0,0,0,.144,1.106,2.311,2.311,0,0,0,.432.959,2.06,2.06,0,0,0,.72.664,2.356,2.356,0,0,0,1.08.221,1.769,1.769,0,0,0,1.368-.516,2.125,2.125,0,0,0,.648-1.4h1.3a3.243,3.243,0,0,1-1.153,2.139,4.509,4.509,0,0,1-3.96.369,3.474,3.474,0,0,1-1.152-.885,5.7,5.7,0,0,1-.72-1.327,6.047,6.047,0,0,1-.216-1.7,6.43,6.43,0,0,1,.216-1.7,3.849,3.849,0,0,1,1.872-2.36,3.78,3.78,0,0,1,1.728-.369,3.681,3.681,0,0,1,1.656.369,3.419,3.419,0,0,1,1.081.959,4.776,4.776,0,0,1,.576,1.4,12.391,12.391,0,0,1,.144,1.7h-5.761Zm4.464-.959a3.819,3.819,0,0,0-.144-.959,2.757,2.757,0,0,0-.36-.811,1.714,1.714,0,0,0-.648-.59,1.954,1.954,0,0,0-.936-.221,1.767,1.767,0,0,0-.936.221,1.837,1.837,0,0,0-.72.59,1.77,1.77,0,0,0-.432.811,2.316,2.316,0,0,0-.216.959Z" fill="#315679"/>
      <path id="Path_46" data-name="Path 46" d="M291.395,31.775h-.36a2.1,2.1,0,0,0-1.729.664,3.28,3.28,0,0,0-.5,1.844v4.425h-1.368V32.881c0-.811,0-1.622-.072-2.434h1.368l.072,1.327a2.719,2.719,0,0,1,1.009-1.032,2.8,2.8,0,0,1,1.44-.3h.432v1.327Z" fill="#315679"/>
      <path id="Path_47" data-name="Path 47" d="M297.659,38.633h-1.44l-3.24-8.186h1.584l2.52,6.785,2.52-6.785h1.44Z" fill="#315679"/>
      <path id="Path_48" data-name="Path 48" d="M303.2,28.383V26.908h1.584v1.475Zm.072,10.251V30.448h1.368v8.186Z" fill="#315679"/>
      <path id="Path_49" data-name="Path 49" d="M314.436,37.232a2.935,2.935,0,0,1-.72.885,2.48,2.48,0,0,1-1.08.516,5.175,5.175,0,0,1-2.952-.147,3.767,3.767,0,0,1-1.224-.885,2.97,2.97,0,0,1-.72-1.327,6.42,6.42,0,0,1-.288-1.7,4.8,4.8,0,0,1,.288-1.77,5.01,5.01,0,0,1,.72-1.4,3.969,3.969,0,0,1,1.224-.959,4.262,4.262,0,0,1,1.728-.369,3.158,3.158,0,0,1,2.232.737,2.867,2.867,0,0,1,1.008,2.139h-1.368a2.244,2.244,0,0,0-.576-1.4,2.084,2.084,0,0,0-1.368-.516,2.165,2.165,0,0,0-1.224.3,3.81,3.81,0,0,0-.792.737,2.531,2.531,0,0,0-.432,1.106,5.208,5.208,0,0,0,0,2.434,2.618,2.618,0,0,0,.432,1.032,2.317,2.317,0,0,0,.72.737,2.41,2.41,0,0,0,1.152.295,1.933,1.933,0,0,0,1.44-.516,1.963,1.963,0,0,0,.576-1.475h1.368A2.078,2.078,0,0,1,314.436,37.232Z" fill="#315679"/>
      <path id="Path_50" data-name="Path 50" d="M318.252,34.8v.147a5.823,5.823,0,0,0,.144,1.106,2.311,2.311,0,0,0,.432.959,2.06,2.06,0,0,0,.72.664,2.36,2.36,0,0,0,1.081.221A1.769,1.769,0,0,0,322,37.38a2.125,2.125,0,0,0,.648-1.4h1.3a3.246,3.246,0,0,1-1.152,2.139,4.511,4.511,0,0,1-3.961.369,3.474,3.474,0,0,1-1.152-.885,5.7,5.7,0,0,1-.72-1.327,6.047,6.047,0,0,1-.216-1.7,6.43,6.43,0,0,1,.216-1.7,3.849,3.849,0,0,1,1.872-2.36,3.781,3.781,0,0,1,1.729-.369,3.681,3.681,0,0,1,1.656.369,3.416,3.416,0,0,1,1.08.959,4.775,4.775,0,0,1,.576,1.4,12.386,12.386,0,0,1,.144,1.7h-5.761Zm4.465-.959a3.82,3.82,0,0,0-.144-.959,2.757,2.757,0,0,0-.36-.811,1.714,1.714,0,0,0-.648-.59,1.954,1.954,0,0,0-.936-.221,1.771,1.771,0,0,0-.937.221,1.837,1.837,0,0,0-.72.59,1.771,1.771,0,0,0-.432.811,2.316,2.316,0,0,0-.216.959Z" fill="#315679"/>
      <path id="Path_51" data-name="Path 51" d="M332.726,36.273a2.048,2.048,0,0,1-.288,1.18,3.832,3.832,0,0,1-.72.811,2.407,2.407,0,0,1-1.08.443,6.164,6.164,0,0,1-1.152.147,6.938,6.938,0,0,1-1.224-.147,2.5,2.5,0,0,1-1.008-.443,2.3,2.3,0,0,1-.648-.811,3,3,0,0,1-.216-1.254h1.368a1.671,1.671,0,0,0,.5,1.254,1.719,1.719,0,0,0,1.3.369,1.95,1.95,0,0,0,.648-.074,4.908,4.908,0,0,0,.576-.221,2.476,2.476,0,0,0,.432-.442c.144-.148.144-.369.144-.664a1.085,1.085,0,0,0-.144-.516.879.879,0,0,0-.36-.369,1.435,1.435,0,0,0-.576-.295l-.648-.221-.648-.147a3.99,3.99,0,0,1-.864-.295,1.7,1.7,0,0,1-.792-.442,1.728,1.728,0,0,1-.576-.664,1.881,1.881,0,0,1-.216-.959,1.809,1.809,0,0,1,.288-1.106,3.455,3.455,0,0,1,.72-.737,2.382,2.382,0,0,1,1.008-.369,4.291,4.291,0,0,1,2.232,0,2.208,2.208,0,0,1,.936.442,2.076,2.076,0,0,1,.648.737,3.98,3.98,0,0,1,.288,1.18h-1.368a1.309,1.309,0,0,0-.432-1.106,1.465,1.465,0,0,0-1.152-.369,1.748,1.748,0,0,0-.576.074,3.466,3.466,0,0,0-.5.221,1.921,1.921,0,0,0-.432.369,1.417,1.417,0,0,0-.144.59.967.967,0,0,0,.5.885,4.753,4.753,0,0,0,1.224.516l.648.147c.36.074.648.221,1.008.295a7.8,7.8,0,0,1,.792.443,1.6,1.6,0,0,1,.5.664C332.87,35.683,332.726,35.9,332.726,36.273Z" fill="#315679"/>
    </g>
  </g>
</svg>
